<svg width="200" height="39" viewBox="0 0 200 39" fill="none" xmlns="http://www.w3.org/2000/svg">
<path d="M1.77433 38.3418C0.724728 38.3418 0.199925 37.9241 0.199925 37.0888C0.199925 36.905 0.241576 36.6544 0.324878 36.337L7.29726 10.1493C7.64713 8.81276 8.49681 8.1445 9.84631 8.1445H13.8448C14.8778 8.1445 15.3942 8.56216 15.3942 9.39749C15.3942 9.64809 15.3609 9.89869 15.2943 10.1493L9.04661 33.5804C8.96331 33.8978 8.92165 34.1484 8.92165 34.3322C8.92165 35.1675 9.44646 35.5852 10.4961 35.5852H11.7706C15.5525 35.5852 18.668 33.8477 21.1171 30.3727C23.2496 27.3655 24.8907 23.7151 26.0402 19.4215C26.7233 16.8988 27.0648 14.6016 27.0648 12.53C27.0648 11.0932 26.8982 9.76504 26.565 8.54545C25.5488 4.85328 22.9331 3.0072 18.718 3.0072C12.2704 3.0072 6.13103 6.13134 0.299888 12.3796L0 12.1792C5.63122 4.05972 12.9868 0 22.0667 0C27.2814 0 31.0217 1.60384 33.2875 4.81152C34.9702 7.20057 35.8116 10.0073 35.8116 13.2317C35.8116 15.1529 35.5117 17.2162 34.9119 19.4215C33.5458 24.5003 31.03 28.8106 27.3647 32.3524C23.233 36.3453 17.9849 38.3418 11.6206 38.3418H1.77433Z" fill="#9747FF"/>
<path d="M38.3856 38.3418C37.336 38.3418 36.8112 37.9241 36.8112 37.0888C36.8112 36.8382 36.8445 36.5876 36.9112 36.337L43.2088 12.7806C43.5587 11.4441 44.4083 10.7758 45.7578 10.7758H49.2315C50.2811 10.7758 50.8059 11.1935 50.8059 12.0288C52.0388 10.8593 53.6549 10.2746 55.6541 10.2746C58.1199 10.2913 60.1025 11.1768 61.6019 12.931C62.7015 14.2174 63.2513 15.6792 63.2513 17.3164C63.2513 18.7866 62.7848 19.9979 61.8518 20.9501C60.9688 21.8523 59.8775 22.3034 58.578 22.3034C57.1786 22.3034 56.0706 21.8607 55.2543 20.9752C54.4546 20.1065 54.0547 19.0623 54.0547 17.8427C54.0547 16.4895 54.5379 15.4202 55.5042 14.635C56.2706 14.0169 57.1952 13.7078 58.2781 13.7078C57.5784 13.0563 56.7204 12.7305 55.7041 12.7305C54.7045 12.7305 53.7798 13.0395 52.9301 13.6577C50.9309 15.0611 49.4814 17.4167 48.5818 20.7246L44.4083 36.337C44.0585 37.6735 43.2171 38.3418 41.8843 38.3418H38.3856Z" fill="#9747FF"/>
<path d="M76.5963 7.91896C75.7133 8.82111 74.6387 9.27219 73.3725 9.27219C72.1063 9.27219 71.0317 8.82111 70.1487 7.91896C69.2657 7.0168 68.8242 5.92251 68.8242 4.6361C68.8242 3.34968 69.2657 2.2554 70.1487 1.35324C71.0317 0.45108 72.1063 0 73.3725 0C74.6387 0 75.7133 0.45108 76.5963 1.35324C77.4793 2.2554 77.9208 3.34968 77.9208 4.6361C77.9208 5.92251 77.4793 7.0168 76.5963 7.91896ZM62.3516 38.3418C61.302 38.3418 60.7772 37.9241 60.7772 37.0888C60.7772 36.905 60.8189 36.6544 60.9022 36.337L67.1998 12.7806C67.5497 11.4441 68.3993 10.7758 69.7488 10.7758H73.2475C74.2971 10.7758 74.8219 11.1935 74.8219 12.0288C74.8219 12.2126 74.7803 12.4632 74.697 12.7806L68.3993 36.337C68.0495 37.6735 67.1998 38.3418 65.8503 38.3418H62.3516Z" fill="#9747FF"/>
<path d="M72.2979 38.843C72.2979 38.843 72.2146 38.7678 72.048 38.6174L93.9898 14.1338C93.3067 14.0837 92.5236 13.8832 91.6406 13.5324C90.5577 13.098 89.3998 12.8808 88.1669 12.8808C87.2673 12.8808 86.2427 12.9978 85.0931 13.2317C85.5429 13.3486 85.9344 13.5491 86.2676 13.8331C87.184 14.5849 87.6421 15.6124 87.6421 16.9155C87.6421 18.1685 87.209 19.2377 86.3426 20.1232C85.443 21.042 84.36 21.5015 83.0938 21.5015C81.8276 21.5015 80.753 21.0504 79.87 20.1482C78.987 19.2461 78.5455 18.1518 78.5455 16.8654C78.5455 16.2973 78.6538 15.6959 78.8704 15.0611C79.2869 13.8415 80.1949 12.7973 81.5944 11.9286C83.3437 10.8259 85.7095 10.2746 88.6917 10.2746C90.3411 10.2746 92.1571 10.5419 94.1397 11.0765C95.5725 11.4608 97.2219 11.6529 99.0878 11.6529C100.97 11.6529 103.003 11.1935 105.186 10.2746C105.186 10.2746 105.269 10.3498 105.435 10.5001L83.7186 34.7582C84.6016 34.8584 85.6429 35.1425 86.8424 35.6102C87.8254 35.9945 89.0333 36.1866 90.4661 36.1866C91.5657 36.1866 92.6069 36.0864 93.5899 35.8859C93.1401 35.7857 92.7402 35.5935 92.3904 35.3095C91.4907 34.5744 91.0409 33.5386 91.0409 32.2021C91.0409 30.9491 91.474 29.8799 92.3404 28.9944C93.24 28.0755 94.323 27.6161 95.5892 27.6161C96.8553 27.6161 97.9299 28.0672 98.8129 28.9693C99.6959 29.8715 100.137 30.9658 100.137 32.2522C100.137 32.8202 100.029 33.4217 99.8126 34.0565C99.3961 35.2761 98.4881 36.3203 97.0886 37.189C95.3392 38.2917 92.9735 38.843 89.9912 38.843C88.3252 38.843 86.5509 38.6091 84.6682 38.1413C82.9022 37.6902 81.1196 37.4647 79.3203 37.4647C77.0211 37.4647 74.6803 37.9241 72.2979 38.843Z" fill="#9747FF"/>
<path d="M99.2378 38.843C99.2378 38.843 99.1545 38.7678 98.9879 38.6174L120.93 14.1338C120.247 14.0837 119.464 13.8832 118.581 13.5324C117.498 13.098 116.34 12.8808 115.107 12.8808C114.207 12.8808 113.183 12.9978 112.033 13.2317C112.483 13.3486 112.874 13.5491 113.208 13.8331C114.124 14.5849 114.582 15.6124 114.582 16.9155C114.582 18.1685 114.149 19.2377 113.283 20.1232C112.383 21.042 111.3 21.5015 110.034 21.5015C108.768 21.5015 107.693 21.0504 106.81 20.1482C105.927 19.2461 105.485 18.1518 105.485 16.8654C105.485 16.2973 105.594 15.6959 105.81 15.0611C106.227 13.8415 107.135 12.7973 108.534 11.9286C110.284 10.8259 112.649 10.2746 115.632 10.2746C117.281 10.2746 119.097 10.5419 121.08 11.0765C122.512 11.4608 124.162 11.6529 126.028 11.6529C127.91 11.6529 129.943 11.1935 132.125 10.2746C132.125 10.2746 132.209 10.3498 132.375 10.5001L110.658 34.7582C111.542 34.8584 112.583 35.1425 113.782 35.6102C114.765 35.9945 115.973 36.1866 117.406 36.1866C118.506 36.1866 119.547 36.0864 120.53 35.8859C120.08 35.7857 119.68 35.5935 119.33 35.3095C118.431 34.5744 117.981 33.5386 117.981 32.2021C117.981 30.9491 118.414 29.8799 119.28 28.9944C120.18 28.0755 121.263 27.6161 122.529 27.6161C123.795 27.6161 124.87 28.0672 125.753 28.9693C126.636 29.8715 127.077 30.9658 127.077 32.2522C127.077 32.8202 126.969 33.4217 126.752 34.0565C126.336 35.2761 125.428 36.3203 124.028 37.189C122.279 38.2917 119.913 38.843 116.931 38.843C115.265 38.843 113.491 38.6091 111.608 38.1413C109.842 37.6902 108.059 37.4647 106.26 37.4647C103.961 37.4647 101.62 37.9241 99.2378 38.843Z" fill="#9747FF"/>
<path d="M126.178 38.843C126.178 38.843 126.094 38.7678 125.928 38.6174L147.87 14.1338C147.186 14.0837 146.403 13.8832 145.52 13.5324C144.437 13.098 143.28 12.8808 142.047 12.8808C141.147 12.8808 140.122 12.9978 138.973 13.2317C139.423 13.3486 139.814 13.5491 140.147 13.8331C141.064 14.5849 141.522 15.6124 141.522 16.9155C141.522 18.1685 141.089 19.2377 140.222 20.1232C139.323 21.042 138.24 21.5015 136.974 21.5015C135.707 21.5015 134.633 21.0504 133.75 20.1482C132.867 19.2461 132.425 18.1518 132.425 16.8654C132.425 16.2973 132.534 15.6959 132.75 15.0611C133.167 13.8415 134.075 12.7973 135.474 11.9286C137.224 10.8259 139.589 10.2746 142.572 10.2746C144.221 10.2746 146.037 10.5419 148.019 11.0765C149.452 11.4608 151.102 11.6529 152.968 11.6529C154.85 11.6529 156.883 11.1935 159.065 10.2746C159.065 10.2746 159.149 10.3498 159.315 10.5001L137.598 34.7582C138.481 34.8584 139.523 35.1425 140.722 35.6102C141.705 35.9945 142.913 36.1866 144.346 36.1866C145.445 36.1866 146.487 36.0864 147.47 35.8859C147.02 35.7857 146.62 35.5935 146.27 35.3095C145.37 34.5744 144.921 33.5386 144.921 32.2021C144.921 30.9491 145.354 29.8799 146.22 28.9944C147.12 28.0755 148.203 27.6161 149.469 27.6161C150.735 27.6161 151.81 28.0672 152.693 28.9693C153.576 29.8715 154.017 30.9658 154.017 32.2522C154.017 32.8202 153.909 33.4217 153.692 34.0565C153.276 35.2761 152.368 36.3203 150.968 37.189C149.219 38.2917 146.853 38.843 143.871 38.843C142.205 38.843 140.431 38.6091 138.548 38.1413C136.782 37.6902 134.999 37.4647 133.2 37.4647C130.901 37.4647 128.56 37.9241 126.178 38.843Z" fill="#9747FF"/>
<path d="M158.166 38.3418C157.116 38.3418 156.591 37.9241 156.591 37.0888C156.591 36.905 156.633 36.6544 156.716 36.337L165.763 2.506C166.113 1.16947 166.962 0.5012 168.312 0.5012H171.811C172.86 0.5012 173.385 0.918866 173.385 1.7542C173.385 1.93797 173.343 2.18857 173.26 2.506L164.213 36.337C163.864 37.6735 163.014 38.3418 161.664 38.3418H158.166Z" fill="#9747FF"/>
<path d="M182.632 38.843C178.5 38.843 175.551 37.6401 173.785 35.2343C172.552 33.547 171.936 31.5255 171.936 29.1698C171.936 27.7498 172.16 26.2127 172.61 24.5588C173.76 20.2485 176.059 16.7234 179.508 13.9835C182.623 11.5109 186.197 10.2746 190.229 10.2746C194.26 10.2746 197.034 11.3522 198.551 13.5073C199.517 14.8773 200 16.3892 200 18.0432C200 18.8785 199.875 19.7473 199.625 20.6494C198.925 23.2724 197.034 25.0349 193.952 25.9371L179.783 30.097C179.783 31.0493 179.849 31.8345 179.982 32.4527C180.516 34.942 182.115 36.1866 184.781 36.1866C186.563 36.1866 188.204 35.7355 189.704 34.8334C191.403 33.8143 192.961 32.6114 194.377 31.2247H194.702L193.652 35.1341C190.537 37.6067 186.863 38.843 182.632 38.843ZM180.082 27.165L187.955 24.8344C189.92 24.2497 191.195 22.9048 191.778 20.7998C192.145 19.3964 192.328 18.1351 192.328 17.0157C192.328 16.4978 192.286 16.0133 192.203 15.5623C191.853 13.6243 190.895 12.6553 189.329 12.6553C187.78 12.6553 186.263 13.6159 184.781 15.5372C183.098 17.7425 181.74 20.7497 180.707 24.5588C180.424 25.6447 180.216 26.5135 180.082 27.165Z" fill="#9747FF"/>
</svg>
